<svg xmlns="http://www.w3.org/2000/svg" version="1.1" xmlns:xlink="http://www.w3.org/1999/xlink" width="1000" height="1000"><g clip-path="url(#SvgjsClipPath1001)"><rect width="1000" height="1000" fill="#ffffff"></rect><g transform="matrix(3.5,0,0,3.5,150,150)"><svg xmlns="http://www.w3.org/2000/svg" version="1.1" xmlns:xlink="http://www.w3.org/1999/xlink" width="200" height="200"><svg xmlns="http://www.w3.org/2000/svg" version="1.1" xmlns:xlink="http://www.w3.org/1999/xlink" viewBox="0 0 200 200"><rect width="200" height="200" fill="url('#gradient')"></rect><defs><linearGradient id="gradient" gradientTransform="rotate(240 0.5 0.5)"><stop offset="0%" stop-color="#697f83"></stop><stop offset="100%" stop-color="#161f2f"></stop></linearGradient><clipPath id="SvgjsClipPath1001"><rect width="1000" height="1000" x="0" y="0" rx="350" ry="350"></rect></clipPath></defs><g><g fill="#b1d6bb" transform="matrix(3.41922855497985,0,0,3.41922855497985,38.332103139899836,123.97051147412623)" stroke="#498990" stroke-width="0"><path d="M6.69-4.82L4.50-4.82L4.50 0L1.07 0L1.07-14.22L6.75-14.22Q8.38-14.22 9.63-13.62Q10.89-13.02 11.58-11.91Q12.27-10.80 12.27-9.39L12.27-9.39Q12.27-7.31 10.78-6.07Q9.29-4.82 6.69-4.82L6.69-4.82ZM4.50-11.57L4.50-7.47L6.75-7.47Q7.74-7.47 8.27-7.97Q8.79-8.47 8.79-9.38L8.79-9.38Q8.79-10.37 8.25-10.97Q7.71-11.56 6.79-11.57L6.79-11.57L4.50-11.57ZM17.96-4.46L17.96-14.22L21.38-14.22L21.38-4.46Q21.38-3.11 20.75-2.04Q20.12-0.98 18.99-0.39Q17.86 0.20 16.47 0.20L16.47 0.20Q14.15 0.20 12.86-0.98Q11.57-2.15 11.57-4.30L11.57-4.30L15.01-4.30Q15.01-3.32 15.35-2.88Q15.68-2.44 16.47-2.44L16.47-2.44Q17.19-2.44 17.57-2.97Q17.96-3.51 17.96-4.46L17.96-4.46ZM31.33 0L28.82-5.02L26.96-5.02L26.96 0L23.54 0L23.54-14.22L29.13-14.22Q31.66-14.22 33.09-13.10Q34.51-11.97 34.51-9.92L34.51-9.92Q34.51-8.44 33.91-7.46Q33.31-6.48 32.03-5.88L32.03-5.88L35-0.15L35 0L31.33 0ZM26.96-11.57L26.96-7.67L29.13-7.67Q30.11-7.67 30.60-8.18Q31.09-8.69 31.09-9.61Q31.09-10.53 30.60-11.05Q30.10-11.57 29.13-11.57L29.13-11.57L26.96-11.57Z"></path></g></g></svg></svg></g></g></svg>