<?xml version="1.0" encoding="UTF-8" standalone="no"?>
<svg
   width="17.218468"
   height="19.256756"
   alt="Clarivate"
   version="1.1"
   id="svg1"
   xmlns="http://www.w3.org/2000/svg"
   xmlns:svg="http://www.w3.org/2000/svg">
  <defs
     id="defs1" />
  <path
     id="path1"
     d="M 7.4121094,0.25675678 A 15.512,15.512 0 0 0 5.2695312,4.1923037 15.618,15.618 0 0 1 14.685547,9.6356628 15.637,15.637 0 0 0 17.025391,5.8094912 c -2.613,-2.726 -5.947282,-4.6527344 -9.6132816,-5.55273442 z M 5.2695312,4.1923037 C 3.7901738,3.9424122 2.2803853,3.9070997 0.79101562,4.0868349 a 19.879,19.879 0 0 0 -0.003906,11.0976561 c 1.49199998,0.18 3.00237498,0.144532 4.48437498,-0.105468 -1.14,-3.038 -1.2972188,-6.3543287 -0.4492188,-9.4863287 0.127,-0.476 0.277266,-0.9433906 0.4472654,-1.4003906 z m 0.00195,10.8867193 A 15.508,15.508 0 0 0 7.4238281,19.012616 19.88,19.88 0 0 0 17.025391,13.461835 15.637,15.637 0 0 0 14.6875,9.6376158 15.618,15.618 0 0 1 5.2714844,15.079023 Z M 29.835938,1.260663 a 7.598,7.598 0 0 0 -7.833985,7.7695313 7.598,7.598 0 0 0 7.833985,7.7695317 7.387,7.387 0 0 0 7.361328,-5.601563 h -3.283204 a 4.043,4.043 0 0 1 -4.078124,2.853516 c -2.833001,0 -4.722657,-2.145485 -4.722657,-5.0214847 0,-2.876 1.889656,-5.0214844 4.722657,-5.0214844 a 4.043,4.043 0 0 1 4.078124,2.8535157 h 3.283204 A 7.387,7.387 0 0 0 29.835938,1.260663 Z m 33.783203,0.2558594 a 1.792,1.792 0 1 0 1.802734,1.8027344 1.8,1.8 0 0 0 -1.802734,-1.8027344 z m -24.876953,0.00195 V 16.541913 h 2.769531 V 1.5184756 Z m 49.537109,1.4589843 v 3.734375 h -1.544922 v 2.359375 h 1.544922 V 9.7587068 C 88.710998,9.5570998 89.22093,9.3268108 89.671875,9.168863 89.854918,9.10475 90.042786,9.0567462 90.228516,9.0008942 l 0.46289,-0.09375 c 0.407803,-0.082924 0.705114,0.00404 0.873047,0.1640625 h 1.628906 V 6.7098818 H 91.070312 V 2.9774599 h -0.002 z M 47.714844,6.4540224 a 8.413,8.413 0 0 0 -4.207032,1.203125 l 1.095704,2.1035154 a 6.68,6.68 0 0 1 2.960937,-0.9238279 c 1.073,0 1.630859,0.4502029 1.630859,1.1582029 V 10.10246 c 0,0.365 -0.213546,0.580078 -0.685546,0.580078 h -1.933594 c -2.189,0 -3.560547,1.158391 -3.560547,3.025391 a 3.222,3.222 0 0 0 3.433594,3.091797 3.313,3.313 0 0 0 2.746093,-1.181641 v 0.923828 h 2.789063 v -6.460937 c 0,-2.5970007 -2.037531,-3.6269536 -4.269531,-3.6269536 z m 33.697265,0 a 8.412,8.412 0 0 0 -2.255859,0.34375 c 0.209004,0.6092183 0.101582,1.3481783 0.04102,1.9199219 -0.02241,0.2115345 -0.05343,0.4226199 -0.08594,0.6328125 a 6.681,6.681 0 0 1 2.150391,-0.5136719 c 1.073,0 1.630859,0.4502029 1.630859,1.1582029 V 10.10246 c 0,0.365 -0.2155,0.580078 -0.6875,0.580078 h -1.929687 c -0.515903,0 -0.986383,0.06481 -1.404297,0.1875 -0.236703,1.277333 -0.597444,2.538421 -0.703125,3.833985 -0.057,0.698741 -0.204789,0.619078 0.164062,0.673828 0.04467,-0.08458 0.05559,-0.200247 0.134766,-0.253906 0.235913,-0.159896 0.520312,-0.230374 0.773437,-0.361329 0.22965,-0.118811 0.457234,-0.242059 0.683594,-0.367187 -0.216502,-0.203563 -0.335937,-0.478947 -0.335937,-0.792969 0,-0.687 0.514531,-1.074219 1.394531,-1.074219 h 1.050781 a 1.213,1.213 0 0 0 0.859375,-0.214843 v 0.375 c 0.682444,-0.398759 1.364867,-0.79738 2.050781,-1.189453 0.245546,-0.141223 0.49228,-0.281081 0.740235,-0.417969 v -1 c 0,-2.5970007 -2.039485,-3.6269536 -4.271485,-3.6269536 z m 17.771485,0 a 4.979,4.979 0 0 0 -5.107422,5.1718756 5.269,5.269 0 0 0 10.064448,2.082031 l -2.89648,-0.300781 a 2.334,2.334 0 0 1 -4.228515,-0.964844 h 7.318355 v -0.107422 c 0,-4.1200002 -2.44639,-5.8808596 -5.150386,-5.8808596 z M 58.896484,6.5829287 A 2.589,2.589 0 0 0 56.34375,8.2782412 V 6.7118349 h -2.705078 v 9.8300781 h 2.791016 v -4.699218 c -10e-7,-1.717001 0.643546,-2.3847662 2.060546,-2.3847662 h 1.179688 V 6.6688662 c -0.253,-0.06 -0.513438,-0.088938 -0.773438,-0.085937 z m 2.082032,0.1289062 V 9.073163 h 1.375 v 7.46875 h 2.789062 v -3.246094 c -0.2174,-0.175569 -0.283334,-0.55259 0,-1.017578 V 9.6923038 c -0.442866,-0.08207 -0.886499,-0.158693 -1.326172,-0.253906 -1.048694,-0.227102 -0.950115,-1.1698312 -0.105468,-1.2324222 0.120663,-0.00894 0.256273,-4.373e-4 0.40625,0.03125 0.340581,0.071958 0.682845,0.134562 1.02539,0.1972656 V 6.7118349 Z m 5.302734,0 0.724609,2.1289063 h 0.002 c 0.108641,0.029484 0.208744,0.058288 0.308594,0.087891 0.490802,-0.7405482 0.986111,-1.4790127 1.480469,-2.2167969 z m 7.361328,0 -0.921875,2.8203129 c 0.335132,-0.244782 0.666986,-0.4938525 0.998047,-0.744141 0.915617,-0.6922223 1.819281,-1.3964595 2.744141,-2.0761719 z m 4.56836,0.4726563 c -0.07201,0.00553 -0.153992,0.028714 -0.238282,0.0625 -0.08513,0.034125 -0.172781,0.080279 -0.255859,0.1269531 -0.193978,0.1089782 -0.362624,0.2290814 -0.412109,0.2578125 -0.02724,0.019918 -0.05482,0.040584 -0.08203,0.060547 l 0.6875,1.3183593 c 0.01901,-0.1272978 0.03685,-0.2548752 0.05273,-0.3828124 0.03992,-0.3213902 0.02596,-0.6508664 0.08789,-0.96875 0.02242,-0.11508 0.09968,-0.2120589 0.160157,-0.3125 0.02403,-0.039909 0.107362,-0.092401 0.126953,-0.125 5.04e-4,-0.00104 0.0036,-0.00486 0.0039,-0.00586 h 0.002 v -0.00195 -0.00195 -0.00195 -0.00195 l -0.002,-0.00195 v -0.00195 h -0.002 v -0.00195 l -0.002,-0.00195 h -0.002 c -7.49e-4,-3.646e-4 -0.0024,-0.00115 -0.0039,-0.00195 l -0.002,-0.00195 h -0.002 c -0.03468,-0.011421 -0.07398,-0.015039 -0.117187,-0.011719 z M 69.615234,7.713788 c -0.357194,0.533492 -0.71313,1.0684722 -1.068359,1.6035158 0.588197,0.195888 1.171452,0.405618 1.753906,0.617187 z m 6.257813,0.9902344 c -0.471768,0.3592111 -0.94229,0.7206414 -1.416016,1.0781254 -0.240076,0.181166 -1.844667,1.4071032 -2.183593,1.4960932 -0.04391,0.01153 -0.08831,0.01851 -0.132813,0.02344 l -0.730469,2.234375 -0.673828,-2.183594 c -0.120783,-0.007 -0.254475,-0.03492 -0.40039,-0.08789 -0.805309,-0.292334 -1.610828,-0.588709 -2.425782,-0.853515 -0.02441,-0.0076 -0.04884,-0.01605 -0.07227,-0.02344 -0.06668,0.10142 -0.1327,0.203167 -0.199219,0.304688 l 1.992187,5.849609 h 3.453125 z m 23.310547,0.068359 a 2.132,2.132 0 0 1 2.167966,1.8027346 h -4.400388 a 2.192,2.192 0 0 1 2.232422,-1.8027346 z m -8.113282,1.3164066 c -0.04389,0.0123 -0.09011,0.024 -0.138671,0.0332 -0.116621,0.0221 -0.232989,0.04431 -0.34961,0.06641 -0.789839,0.230225 -1.554581,0.558028 -2.302734,0.927734 v 3.34375 c 0,1.974 1.437031,2.208984 2.832031,2.208984 0.816,0 2.167969,-0.128906 2.167969,-0.128906 v -2.380859 c 0,0 -0.578109,0.06445 -1.287109,0.06445 -0.429001,0 -0.921876,-0.08699 -0.921876,-0.708985 z m -13.644531,1.644531 c -0.460686,0.50447 -0.71289,1.174293 -0.71289,1.97461 a 3.222,3.222 0 0 0 0.210937,1.027344 c 0.03679,-0.455289 0.121343,-0.999264 0.148438,-1.164063 0.101233,-0.615669 0.227975,-1.226521 0.353515,-1.837891 z m -28.230469,0.580079 v 0.708984 a 1.7,1.7 0 0 1 -1.910156,1.738281 c -0.859,0 -1.394531,-0.493203 -1.394531,-1.158203 0,-0.687 0.514531,-1.074219 1.394531,-1.074219 h 1.052735 a 1.213,1.213 0 0 0 0.857421,-0.214843 z m 36.488282,0.193359 c -0.04234,0.02283 -0.08466,0.04572 -0.126953,0.06836 -1.720445,0.983367 -1.128372,0.640443 -2.904297,1.675782 -0.509336,0.296936 -1.013603,0.603331 -1.527344,0.892578 -0.474049,0.2669 -2.009544,1.16622 -2.666016,1.21875 -0.05341,0.0043 -0.107315,0.0038 -0.160156,0 a 3.222,3.222 0 0 0 1.847656,0.4375 3.313,3.313 0 0 0 2.746094,-1.181641 v 0.923828 h 2.791016 z" />
</svg>
